<svg width="147" height="72" viewBox="0 0 147 72" fill="none" xmlns="http://www.w3.org/2000/svg">
<path fill-rule="evenodd" clip-rule="evenodd" d="M36.83 244.251C12.6996 248.662 -14.4981 237.668 -30.8437 219.377C-46.5331 201.821 -40.236 174.686 -45.7858 151.804C-50.0738 134.124 -60.6653 118.358 -59.7515 100.188C-58.7857 80.9866 -50.899 63.2348 -40.5173 47.0528C-28.8232 28.8254 -17.5358 5.47638 3.70862 1.27364C25.0815 -2.95451 41.4452 21.0469 62.4929 26.6745C84.3461 32.5175 111.402 19.8323 128.502 34.6403C145.483 49.3447 144 76.0459 145.397 98.465C146.703 119.418 146.516 141.162 136.285 159.494C126.419 177.174 105.685 184.104 90.2746 197.236C71.8424 212.944 60.6526 239.896 36.83 244.251Z" fill="#EF4676"/>
</svg>
