<svg width="147" height="72" viewBox="0 0 147 72" fill="none" xmlns="http://www.w3.org/2000/svg">
<path fill-rule="evenodd" clip-rule="evenodd" d="M109.578 -172.251C133.708 -176.662 160.906 -165.668 177.251 -147.377C192.941 -129.821 186.644 -102.686 192.193 -79.8039C196.481 -62.1242 207.073 -46.3577 206.159 -28.1883C205.193 -8.98665 197.307 8.76523 186.925 24.9472C175.231 43.1746 163.944 66.5236 142.699 70.7263C121.326 74.9545 104.963 50.9531 83.9148 45.3255C62.0616 39.4825 35.0061 52.1677 17.9057 37.3597C0.924837 22.6553 2.40812 -4.04588 1.01053 -26.465C-0.295681 -47.4181 -0.108596 -69.1622 10.1223 -87.4944C19.9891 -105.174 40.7232 -112.104 56.1332 -125.236C74.5653 -140.944 85.7551 -167.896 109.578 -172.251Z" fill="#EF4676"/>
</svg>
