<svg width="84" height="86" viewBox="0 0 84 86" fill="none" xmlns="http://www.w3.org/2000/svg">
<path d="M81.3835 53.0881C81.3835 71.0512 63.7714 85.6148 42.046 85.6148C20.3206 85.6148 2.7027 71.0512 2.7027 53.0881C2.7027 35.125 20.3147 6.86377 42.046 6.86377C63.7773 6.86377 81.3835 35.1191 81.3835 53.0881Z" fill="#946841"/>
<path d="M79.8973 51.9529C79.8973 69.682 62.9289 84.0524 42.046 84.0524C21.1632 84.0524 4.1889 69.682 4.1889 51.9529C4.1889 34.2238 21.1573 6.31372 42.046 6.31372C62.9347 6.31372 79.8973 34.2238 79.8973 51.9529Z" fill="#A77F5B"/>
<path opacity="0.5" d="M76.9248 51.3034C76.9248 67.6399 61.308 80.8811 42.046 80.8811C22.7839 80.8811 7.16711 67.6399 7.16711 51.3034C7.16711 34.9669 22.7839 9.25684 42.0518 9.25684C61.3198 9.25684 76.9248 34.9669 76.9248 51.3034Z" fill="url(#paint0_linear_372_1074)"/>
<path d="M22.5089 11.7788C22.5089 13.9868 21.8541 16.1453 20.6274 17.9812C19.4007 19.8171 17.6571 21.248 15.6171 22.093C13.5772 22.938 11.3324 23.1591 9.16684 22.7283C7.00122 22.2976 5.01199 21.2343 3.45067 19.673C1.88935 18.1116 0.826069 16.1224 0.395302 13.9568C-0.0354655 11.7912 0.185633 9.54646 1.03061 7.50649C1.87559 5.46653 3.30652 3.72295 5.14244 2.49623C6.97835 1.26951 9.13681 0.614746 11.3448 0.614746C14.3057 0.614746 17.1453 1.79096 19.239 3.88462C21.3327 5.97829 22.5089 8.8179 22.5089 11.7788Z" fill="#A77F5B"/>
<!-- <path d="M18.4424 12.7617C18.4424 14.0347 18.0649 15.2791 17.3576 16.3375C16.6504 17.396 15.6452 18.221 14.4691 18.7081C13.2931 19.1953 11.9989 19.3227 10.7504 19.0744C9.50188 18.826 8.35505 18.213 7.45491 17.3129C6.55478 16.4127 5.94178 15.2659 5.69344 14.0174C5.44509 12.7689 5.57256 11.4748 6.05971 10.2987C6.54685 9.1226 7.3718 8.11738 8.43025 7.41015C9.48869 6.70292 10.7331 6.32544 12.0061 6.32544C13.7131 6.32544 15.3502 7.00355 16.5572 8.21059C17.7643 9.41763 18.4424 11.0547 18.4424 12.7617Z" fill="#EF4676"/> -->
<path d="M72.7471 22.9487C78.9129 22.9487 83.9111 17.9504 83.9111 11.7847C83.9111 5.61893 78.9129 0.620605 72.7471 0.620605C66.5814 0.620605 61.5831 5.61893 61.5831 11.7847C61.5831 17.9504 66.5814 22.9487 72.7471 22.9487Z" fill="#A77F5B"/>
<!-- <path d="M65.6438 12.7617C65.6438 14.0347 66.0213 15.2791 66.7285 16.3375C67.4357 17.396 68.4409 18.221 69.617 18.7081C70.7931 19.1953 72.0872 19.3227 73.3358 19.0744C74.5843 18.826 75.7311 18.213 76.6313 17.3129C77.5314 16.4127 78.1444 15.2659 78.3927 14.0174C78.6411 12.7689 78.5136 11.4748 78.0264 10.2987C77.5393 9.1226 76.7143 8.11738 75.6559 7.41015C74.5975 6.70292 73.3531 6.32544 72.0801 6.32544C70.3731 6.32544 68.736 7.00355 67.5289 8.21059C66.3219 9.41763 65.6438 11.0547 65.6438 12.7617Z" fill="#EF4676"/> -->
<path d="M62.806 62.3037C62.8071 66.4113 61.5901 70.4269 59.3087 73.8428C57.0274 77.2586 53.7843 79.9211 49.9896 81.4935C46.1949 83.066 42.0191 83.4777 37.9904 82.6766C33.9616 81.8756 30.261 79.8977 27.3565 76.9932C24.452 74.0887 22.4741 70.388 21.673 66.3593C20.872 62.3306 21.2837 58.1548 22.8561 54.3601C24.4286 50.5654 27.0911 47.3223 30.5069 45.0409C33.9227 42.7596 37.9384 41.5425 42.046 41.5437C44.7722 41.5437 47.4718 42.0807 49.9905 43.124C52.5092 44.1672 54.7977 45.6964 56.7255 47.6242C58.6532 49.5519 60.1824 51.8405 61.2257 54.3592C62.269 56.8779 62.806 59.5774 62.806 62.3037Z" fill="#FCFADB"/>
<path d="M50.934 44.8262C50.934 47.1633 50.0056 49.4046 48.3531 51.0572C46.7005 52.7097 44.4592 53.6381 42.1221 53.6381C39.7851 53.6381 37.5437 52.7097 35.8912 51.0572C34.2386 49.4046 33.3102 47.1633 33.3102 44.8262C33.3102 39.9639 37.2539 38.7585 42.1221 38.7585C46.9903 38.7585 50.934 39.9639 50.934 44.8262Z" fill="#3E2924"/>
<path d="M48.6286 42.6553C48.6286 43.028 48.5181 43.3922 48.311 43.7021C48.104 44.0119 47.8098 44.2534 47.4655 44.396C47.1212 44.5386 46.7424 44.5759 46.3769 44.5032C46.0115 44.4305 45.6757 44.2511 45.4123 43.9876C45.1488 43.7241 44.9693 43.3884 44.8966 43.0229C44.8239 42.6574 44.8612 42.2786 45.0038 41.9343C45.1464 41.59 45.3879 41.2958 45.6978 41.0888C46.0076 40.8818 46.3719 40.7712 46.7445 40.7712C46.9919 40.7712 47.2369 40.82 47.4655 40.9147C47.6941 41.0093 47.9018 41.1481 48.0767 41.3231C48.2517 41.498 48.3905 41.7057 48.4852 41.9343C48.5798 42.1629 48.6286 42.4079 48.6286 42.6553Z" fill="white"/>
<path d="M49.6233 68.0964C49.442 68.0964 49.2624 68.0607 49.0949 67.9913C48.9273 67.9219 48.7751 67.8202 48.6469 67.692C48.5187 67.5638 48.4169 67.4115 48.3476 67.244C48.2782 67.0764 48.2424 66.8969 48.2424 66.7156C48.1929 65.1044 47.5181 63.5757 46.3609 62.4535C45.2037 61.3314 43.6551 60.7038 42.0431 60.7038C40.4312 60.7038 38.8825 61.3314 37.7253 62.4535C36.5681 63.5757 35.8933 65.1044 35.8438 66.7156C35.8561 66.9041 35.8296 67.0931 35.7659 67.2709C35.7022 67.4488 35.6027 67.6117 35.4735 67.7495C35.3444 67.8874 35.1883 67.9973 35.015 68.0724C34.8417 68.1475 34.6548 68.1863 34.4658 68.1863C34.2769 68.1863 34.09 68.1475 33.9167 68.0724C33.7434 67.9973 33.5873 67.8874 33.4582 67.7495C33.329 67.6117 33.2295 67.4488 33.1658 67.2709C33.1021 67.0931 33.0756 66.9041 33.0879 66.7156C33.1476 64.3801 34.1173 62.1604 35.7902 60.5297C37.4631 58.899 39.7069 57.9863 42.0431 57.9863C44.3793 57.9863 46.6231 58.899 48.296 60.5297C49.969 62.1604 50.9386 64.3801 50.9983 66.7156C50.9984 67.0808 50.8537 67.4311 50.596 67.6899C50.3383 67.9487 49.9885 68.0949 49.6233 68.0964Z" fill="#3E2924"/>
<path d="M29.7293 36.8394C29.7293 39.882 28.5591 42.3513 27.1548 42.3513C25.7505 42.3513 24.5744 39.882 24.5744 36.8394C24.5744 33.7968 25.7446 31.3335 27.1548 31.3335C28.5649 31.3335 29.7293 33.7968 29.7293 36.8394Z" fill="#3E2924"/>
<path d="M59.5118 36.8394C59.5118 39.882 58.3415 42.3513 56.9372 42.3513C55.5329 42.3513 54.3569 39.882 54.3569 36.8394C54.3569 33.7968 55.5271 31.3335 56.9372 31.3335C58.3474 31.3335 59.5118 33.7968 59.5118 36.8394Z" fill="#3E2924"/>
<defs>
<linearGradient id="paint0_linear_372_1074" x1="42.046" y1="4.07269" x2="42.046" y2="31.6434" gradientUnits="userSpaceOnUse">
<stop stop-color="white"/>
<stop offset="1" stop-color="#A77F5B"/>
</linearGradient>
</defs>
</svg>
