<svg width="144" height="160" viewBox="0 0 144 160" fill="none" xmlns="http://www.w3.org/2000/svg">
<path d="M42.8757 145.401C46.3388 149.757 50.7517 153.273 55.7811 155.684C60.8104 158.095 66.3248 159.338 71.9077 159.318C77.4906 159.338 83.005 158.095 88.0344 155.684C93.0638 153.273 97.4767 149.757 100.94 145.401C81.6732 147.999 62.1423 147.999 42.8757 145.401ZM125.626 56.4018V61.9751C125.626 68.6647 127.536 75.2039 131.134 80.7693L139.951 94.4097C147.997 106.871 141.854 123.804 127.855 127.739C91.2764 138.046 52.5391 138.046 15.9606 127.739C1.96193 123.804 -4.1819 106.871 3.86397 94.4097L12.6818 80.7693C16.2915 75.1592 18.2057 68.6359 18.1969 61.9751V56.4018C18.1969 25.7959 42.247 0.985107 71.9077 0.985107C101.568 0.985107 125.626 25.7959 125.626 56.4018Z" fill="#EF4676"/>
</svg>
