<?xml version="1.0" encoding="utf-8"?>
<!-- Generator: Adobe Illustrator 26.0.1, SVG Export Plug-In . SVG Version: 6.00 Build 0)  -->
<svg version="1.1" id="Layer_1" xmlns="http://www.w3.org/2000/svg" xmlns:xlink="http://www.w3.org/1999/xlink" x="0px" y="0px"
	 viewBox="0 0 24 24" enable-background="new 0 0 24 24" xml:space="preserve">
<path fill="none" stroke="#272655" stroke-width="1.5" stroke-linecap="round" stroke-linejoin="round" d="M14.88,10.17
	c1.56,1.56,1.56,4.08,0,5.64c-1.56,1.56-4.08,1.56-5.64,0c-1.56-1.56-1.56-4.08,0-5.64C10.8,8.61,13.32,8.61,14.88,10.17"/>
<path fill="none" stroke="#272655" stroke-width="1.5" stroke-linecap="round" stroke-linejoin="round" d="M21,9v9c0,1.1-0.9,2-2,2
	H5c-1.11,0-2-0.9-2-2V9c0-1.11,0.89-2,2-2h2l1.46-2.5C8.64,4.19,8.97,4,9.33,4h5.3c0.35,0,0.68,0.18,0.86,0.48L17,7h2
	C20.1,7,21,7.89,21,9z"/>
</svg>
