<svg width="15" height="16" viewBox="0 0 15 16" fill="none" xmlns="http://www.w3.org/2000/svg">
<path d="M14.0744 14.6666H0.741089" stroke="black" stroke-width="0.8" stroke-linecap="round"/>
<path d="M13.4077 14.6666V9.66658C13.4077 9.40137 13.3024 9.14701 13.1148 8.95948C12.9273 8.77194 12.6729 8.66658 12.4077 8.66658H10.4077C10.1425 8.66658 9.88814 8.77194 9.70061 8.95948C9.51307 9.14701 9.40772 9.40137 9.40772 9.66658V14.6666V3.33325C9.40772 2.39059 9.40772 1.91925 9.11438 1.62659C8.82238 1.33325 8.35105 1.33325 7.40772 1.33325C6.46505 1.33325 5.99371 1.33325 5.70105 1.62659C5.40771 1.91859 5.40771 2.38992 5.40771 3.33325V14.6666V6.33325C5.40771 6.06804 5.30236 5.81368 5.11482 5.62614C4.92729 5.43861 4.67293 5.33325 4.40771 5.33325H2.40771C2.1425 5.33325 1.88814 5.43861 1.70061 5.62614C1.51307 5.81368 1.40771 6.06804 1.40771 6.33325V14.6666" stroke="black" stroke-width="0.8"/>
</svg>
