<svg width="15" height="14" viewBox="0 0 15 14" fill="none" xmlns="http://www.w3.org/2000/svg">
<path d="M7.40776 0.333252C11.0898 0.333252 14.0744 3.31792 14.0744 6.99992C14.0744 10.6819 11.0898 13.6666 7.40776 13.6666C6.34375 13.6681 5.29498 13.4138 4.34976 12.9253L1.79909 13.6366C1.65679 13.6763 1.50648 13.6775 1.36358 13.64C1.22067 13.6025 1.0903 13.5276 0.985834 13.4232C0.881364 13.3187 0.806545 13.1883 0.769046 13.0454C0.731546 12.9025 0.732713 12.7522 0.772428 12.6099L1.48443 10.0613C0.994662 9.11521 0.73971 8.06522 0.741094 6.99992C0.741094 3.31792 3.72576 0.333252 7.40776 0.333252ZM7.40776 1.33325C5.90487 1.33325 4.46353 1.93027 3.40082 2.99298C2.33812 4.05569 1.74109 5.49703 1.74109 6.99992C1.74109 7.97992 1.98976 8.92192 2.45643 9.75792L2.55643 9.93792L1.81509 12.5939L4.47309 11.8526L4.65309 11.9526C5.40935 12.373 6.25185 12.6147 7.11599 12.6591C7.98013 12.7035 8.84297 12.5494 9.63832 12.2086C10.4337 11.8679 11.1404 11.3495 11.7044 10.6933C12.2684 10.037 12.6745 9.26033 12.8918 8.42277C13.1091 7.58521 13.1316 6.70901 12.9578 5.86138C12.7839 5.01374 12.4183 4.21718 11.8889 3.53276C11.3594 2.84835 10.6803 2.29427 9.90355 1.913C9.12679 1.53174 8.27304 1.33342 7.40776 1.33325ZM5.24109 7.66658H8.23976C8.36644 7.66662 8.48839 7.71475 8.58096 7.80123C8.67352 7.88772 8.72981 8.00612 8.73845 8.1325C8.74708 8.25889 8.70742 8.38385 8.62747 8.48212C8.54753 8.58039 8.43326 8.64465 8.30776 8.66192L8.23976 8.66658H5.24109C5.11441 8.66655 4.99247 8.61842 4.8999 8.53194C4.80733 8.44545 4.75105 8.32705 4.74241 8.20066C4.73378 8.07428 4.77344 7.94932 4.85338 7.85105C4.93333 7.75278 5.04759 7.68852 5.17309 7.67125L5.24109 7.66658ZM5.24109 5.33325H9.57776C9.70439 5.33346 9.82622 5.3817 9.91866 5.46824C10.0111 5.55478 10.0673 5.67317 10.0758 5.7995C10.0844 5.92584 10.0446 6.05071 9.9647 6.14891C9.88476 6.24711 9.77054 6.31133 9.64509 6.32859L9.57776 6.33325H5.24109C5.11441 6.33321 4.99247 6.28509 4.8999 6.1986C4.80733 6.11212 4.75105 5.99372 4.74241 5.86733C4.73378 5.74094 4.77344 5.61599 4.85338 5.51772C4.93333 5.41945 5.04759 5.35519 5.17309 5.33792L5.24109 5.33325Z" fill="black"/>
</svg>
