<svg width="20" height="20" viewBox="0 0 20 20" fill="none" xmlns="http://www.w3.org/2000/svg">
<path fill-rule="evenodd" clip-rule="evenodd" d="M18.7965 12.7154C20.3368 6.75419 15.8818 1.40513 10.1788 1.40513C9.38447 1.40513 8.56199 1.51127 7.72387 1.72927C4.67815 2.53983 2.29118 4.99387 1.53543 8.05084C0.977068 10.3187 1.28046 12.4859 2.1844 14.2982C2.32572 14.5808 2.37156 14.9134 2.2847 15.2309C2.2846 15.2313 2.2845 15.2317 2.2844 15.232L1.26069 19.05L4.97492 18.0565C4.97551 18.0563 4.97609 18.0561 4.97668 18.056C5.09153 18.0243 5.20313 18.0126 5.30878 18.0126C5.53192 18.0126 5.75329 18.0739 5.94678 18.1793C7.21016 18.8597 8.6459 19.2544 10.1788 19.2544C10.8928 19.2544 11.629 19.1694 12.3791 18.9861L12.3796 18.986C13.7408 18.6556 15.1702 17.7799 16.3543 16.6254C17.5385 15.4708 18.4458 14.068 18.7965 12.7154ZM10.1788 2.68671C12.561 2.68671 14.764 3.76699 16.2258 5.65542C17.6849 7.54054 18.1735 9.99406 17.5547 12.3929C17.2664 13.5091 16.4854 14.7077 15.4637 15.7053C14.4423 16.7025 13.2172 17.4629 12.0791 17.7398C11.4461 17.8927 10.807 17.9728 10.1788 17.9728C8.90348 17.9728 7.68873 17.665 6.56037 17.0564C6.17467 16.8484 5.74124 16.7354 5.30878 16.7354C5.08163 16.7354 4.8613 16.7664 4.64856 16.8221L4.64699 16.8225L3.07179 17.2428L3.52227 15.5617C3.68713 14.9486 3.61396 14.2981 3.32899 13.7281C2.50676 12.0793 2.31497 10.2264 2.77713 8.36057C3.43121 5.72739 5.45181 3.66191 8.0517 2.97086L8.05288 2.97054C8.76083 2.77978 9.47656 2.68671 10.1788 2.68671Z" fill="#333333"/>
<path fill-rule="evenodd" clip-rule="evenodd" d="M10.1788 0.693604C16.3369 0.693604 21.1446 6.47211 19.4854 12.8935C19.0937 14.4046 18.1007 15.9164 16.851 17.1349C15.6013 18.3534 14.0635 19.3093 12.5479 19.6773C11.7425 19.8741 10.9496 19.9659 10.1788 19.9659C8.52129 19.9659 6.96992 19.5387 5.60848 18.8053L5.60686 18.8044C5.50887 18.7509 5.40351 18.7241 5.30878 18.7241C5.25587 18.7241 5.20898 18.7299 5.16536 18.7421L1.23564 19.7932L1.22448 19.7955L1.22132 19.7961C1.20514 19.7995 1.14886 19.8112 1.09283 19.8112C0.721003 19.8112 0.418125 19.4609 0.518459 19.0708L1.59769 15.0457L1.59825 15.0437C1.63473 14.9108 1.61849 14.7574 1.54784 14.6161C0.569353 12.6545 0.245348 10.314 0.84469 7.88008C1.66211 4.57366 4.24196 1.91924 7.54183 1.04142L7.5437 1.04093C8.43757 0.808341 9.32058 0.693604 10.1788 0.693604ZM10.1788 1.40513C15.8818 1.40513 20.3368 6.75419 18.7965 12.7154C18.4458 14.068 17.5385 15.4708 16.3543 16.6254C15.1702 17.7799 13.7408 18.6556 12.3796 18.986L12.3791 18.9861C11.629 19.1694 10.8928 19.2544 10.1788 19.2544C8.6459 19.2544 7.21016 18.8597 5.94678 18.1793C5.75329 18.0739 5.53192 18.0126 5.30878 18.0126C5.20313 18.0126 5.09153 18.0243 4.97668 18.056L4.97492 18.0565L1.26069 19.05L2.2844 15.232L2.2847 15.2309C2.37156 14.9134 2.32572 14.5808 2.1844 14.2982C1.28046 12.4859 0.977068 10.3187 1.53543 8.05084C2.29118 4.99387 4.67815 2.53983 7.72387 1.72927C8.56199 1.51127 9.38447 1.40513 10.1788 1.40513Z" fill="#333333"/>
</svg>
