<svg width="20" height="19" viewBox="0 0 20 19" fill="none" xmlns="http://www.w3.org/2000/svg">
<path d="M13.8817 3.40807L15.9997 5.52507M15.2437 1.54307L9.51672 7.27007C9.2208 7.56557 9.01899 7.94205 8.93672 8.35207L8.40771 11.0001L11.0557 10.4701C11.4657 10.3881 11.8417 10.1871 12.1377 9.89107L17.8647 4.16407C18.0368 3.99197 18.1733 3.78766 18.2665 3.56281C18.3596 3.33795 18.4075 3.09695 18.4075 2.85357C18.4075 2.61019 18.3596 2.36919 18.2665 2.14433C18.1733 1.91948 18.0368 1.71517 17.8647 1.54307C17.6926 1.37097 17.4883 1.23446 17.2635 1.14132C17.0386 1.04818 16.7976 1.00024 16.5542 1.00024C16.3108 1.00024 16.0698 1.04818 15.845 1.14132C15.6201 1.23446 15.4158 1.37097 15.2437 1.54307Z" stroke="black" stroke-width="1.5" stroke-linecap="round" stroke-linejoin="round"/>
<path d="M16.4077 13V16C16.4077 16.5304 16.197 17.0391 15.8219 17.4142C15.4469 17.7893 14.9381 18 14.4077 18H3.40771C2.87728 18 2.36857 17.7893 1.9935 17.4142C1.61843 17.0391 1.40771 16.5304 1.40771 16V5C1.40771 4.46957 1.61843 3.96086 1.9935 3.58579C2.36857 3.21071 2.87728 3 3.40771 3H6.40771" stroke="black" stroke-width="1.5" stroke-linecap="round" stroke-linejoin="round"/>
</svg>
