<svg width="13" height="12" viewBox="0 0 13 12" fill="none" xmlns="http://www.w3.org/2000/svg">
<path d="M4.65771 5.74988C4.85663 5.74988 5.04739 5.67086 5.18805 5.53021C5.3287 5.38956 5.40771 5.19879 5.40771 4.99988C5.40771 4.80097 5.3287 4.6102 5.18805 4.46955C5.04739 4.3289 4.85663 4.24988 4.65771 4.24988C4.4588 4.24988 4.26804 4.3289 4.12738 4.46955C3.98673 4.6102 3.90771 4.80097 3.90771 4.99988C3.90771 5.19879 3.98673 5.38956 4.12738 5.53021C4.26804 5.67086 4.4588 5.74988 4.65771 5.74988ZM4.54372 7.66688C4.50012 7.61726 4.44712 7.57677 4.38778 7.54776C4.32844 7.51874 4.26395 7.50177 4.19801 7.49782C4.13208 7.49387 4.06602 7.50302 4.00364 7.52475C3.94127 7.54648 3.88382 7.58035 3.83461 7.62441C3.7854 7.66847 3.7454 7.72184 3.71694 7.78144C3.68847 7.84104 3.6721 7.90569 3.66876 7.97166C3.66542 8.03763 3.67519 8.1036 3.69749 8.16577C3.7198 8.22794 3.7542 8.28508 3.79871 8.33388C4.12681 8.70118 4.52888 8.99494 4.97852 9.19589C5.42816 9.39684 5.91521 9.50044 6.40771 9.49988C6.90022 9.50044 7.38727 9.39684 7.83691 9.19589C8.28655 8.99494 8.68862 8.70118 9.01672 8.33388C9.10372 8.23487 9.14811 8.10551 9.14023 7.97394C9.13235 7.84237 9.07283 7.71923 8.97464 7.63132C8.87644 7.5434 8.7475 7.49781 8.61586 7.50447C8.48422 7.51113 8.36054 7.5695 8.27172 7.66688C8.03744 7.92946 7.75022 8.13946 7.42894 8.28303C7.10766 8.42661 6.75961 8.50051 6.40771 8.49988C5.66772 8.49988 5.00272 8.17888 4.54372 7.66688ZM8.90771 4.99988C8.90771 5.19879 8.8287 5.38956 8.68804 5.53021C8.54739 5.67086 8.35663 5.74988 8.15771 5.74988C7.9588 5.74988 7.76804 5.67086 7.62739 5.53021C7.48673 5.38956 7.40771 5.19879 7.40771 4.99988C7.40771 4.80097 7.48673 4.6102 7.62739 4.46955C7.76804 4.3289 7.9588 4.24988 8.15771 4.24988C8.35663 4.24988 8.54739 4.3289 8.68804 4.46955C8.8287 4.6102 8.90771 4.80097 8.90771 4.99988ZM12.4077 5.99988C12.4077 5.21195 12.2525 4.43173 11.951 3.70378C11.6495 2.97582 11.2075 2.31439 10.6504 1.75724C10.0932 1.20009 9.43177 0.758129 8.70382 0.456601C7.97586 0.155073 7.19565 -0.00012207 6.40771 -0.00012207C5.61978 -0.00012207 4.83957 0.155073 4.11161 0.456601C3.38366 0.758129 2.72223 1.20009 2.16507 1.75724C1.60792 2.31439 1.16597 2.97582 0.864438 3.70378C0.562909 4.43173 0.407715 5.21195 0.407715 5.99988C0.407715 7.59118 1.03986 9.1173 2.16507 10.2425C3.29029 11.3677 4.81642 11.9999 6.40771 11.9999C7.99901 11.9999 9.52514 11.3677 10.6504 10.2425C11.7756 9.1173 12.4077 7.59118 12.4077 5.99988ZM1.40771 5.99988C1.40771 4.6738 1.9345 3.40203 2.87218 2.46434C3.80986 1.52666 5.08163 0.999878 6.40771 0.999878C7.7338 0.999878 9.00557 1.52666 9.94325 2.46434C10.8809 3.40203 11.4077 4.6738 11.4077 5.99988C11.4077 7.32596 10.8809 8.59773 9.94325 9.53541C9.00557 10.4731 7.7338 10.9999 6.40771 10.9999C5.08163 10.9999 3.80986 10.4731 2.87218 9.53541C1.9345 8.59773 1.40771 7.32596 1.40771 5.99988Z" fill="black"/>
</svg>
