<?xml version="1.0" encoding="utf-8"?>
<!-- Generator: Adobe Illustrator 26.0.1, SVG Export Plug-In . SVG Version: 6.00 Build 0)  -->
<svg version="1.1" id="Layer_1" xmlns="http://www.w3.org/2000/svg" xmlns:xlink="http://www.w3.org/1999/xlink" x="0px" y="0px"
	 viewBox="0 0 24 24" enable-background="new 0 0 24 24" xml:space="preserve">
<path fill="none" stroke="#272655" stroke-width="1.5" stroke-linecap="round" stroke-linejoin="round" d="M12.47,11.8L12.47,11.8
	c0.07-0.08,0.07-0.2,0-0.27c-0.08-0.07-0.2-0.07-0.27,0c-0.07,0.08-0.07,0.2,0,0.27C12.28,11.88,12.4,11.88,12.47,11.8"/>
<path fill="none" stroke="#272655" stroke-width="1.5" stroke-linecap="round" stroke-linejoin="round" d="M3,13.3
	c0.32-0.05,0.65-0.08,0.97-0.08l0,0c1.8,0,3.54,0.72,4.81,1.99c1.28,1.28,1.99,3.01,1.99,4.81c0,0.33-0.03,0.65-0.08,0.97"/>
<path fill="none" stroke="#272655" stroke-width="1.5" stroke-linecap="round" stroke-linejoin="round" d="M6,7h8c1.66,0,3,1.34,3,3
	v8c0,1.66-1.34,3-3,3H6c-1.66,0-3-1.34-3-3v-8C3,8.34,4.34,7,6,7z"/>
<path fill="none" stroke="#272655" stroke-width="1.5" stroke-linecap="round" stroke-linejoin="round" d="M6,7V6c0-1.66,1.34-3,3-3
	h9c1.66,0,3,1.34,3,3v9c0,1.66-1.34,3-3,3h-1"/>
</svg>
