<svg width="85" height="86" viewBox="0 0 85 86" fill="none" xmlns="http://www.w3.org/2000/svg">
<path d="M81.7478 52.8676C81.7478 70.8378 64.1345 85.4023 42.4076 85.4023C20.6807 85.4023 3.06165 70.867 3.06165 52.8676C3.06165 34.8681 20.6749 6.64014 42.4076 6.64014C64.1404 6.64014 81.7478 34.9032 81.7478 52.8676Z" fill="#946841"/>
<path d="M80.2615 51.7382C80.2615 69.4685 63.2919 83.84 42.4077 83.84C21.5234 83.84 4.54797 69.4685 4.54797 51.7382C4.54797 34.008 21.5175 6.09595 42.4077 6.09595C63.2978 6.09595 80.2615 34.0021 80.2615 51.7382Z" fill="#A77F5B"/>
<path opacity="0.5" d="M77.2889 51.0887C77.2889 67.4263 61.671 80.6684 42.4077 80.6684C23.1443 80.6684 7.52057 67.4263 7.52057 51.0887C7.52057 34.7511 23.1384 9.03931 42.4077 9.03931C61.6769 9.03931 77.2889 34.7453 77.2889 51.0887Z" fill="url(#paint0_linear_372_1071)"/>
<path d="M22.8693 11.5672C22.8693 13.7753 22.2145 15.9339 20.9877 17.77C19.7609 19.606 18.0172 21.037 15.9771 21.8821C13.937 22.7271 11.6921 22.9482 9.52634 22.5174C7.36058 22.0866 5.3712 21.0233 3.80977 19.4619C2.24835 17.9004 1.185 15.9111 0.754206 13.7453C0.32341 11.5795 0.544511 9.33466 1.38955 7.29456C2.23459 5.25446 3.66561 3.51076 5.50165 2.28395C7.33769 1.05715 9.49629 0.402344 11.7045 0.402344C14.6656 0.402344 17.5054 1.57863 19.5992 3.67244C21.693 5.76625 22.8693 8.60606 22.8693 11.5672Z" fill="#A77F5B"/>
<!-- <path d="M18.8024 12.5444C18.8024 13.8175 18.4249 15.0619 17.7176 16.1205C17.0104 17.179 16.0051 18.004 14.8289 18.4912C13.6528 18.9783 12.3585 19.1058 11.1099 18.8574C9.86134 18.6091 8.71443 17.996 7.81423 17.0959C6.91404 16.1957 6.301 15.0487 6.05264 13.8001C5.80427 12.5515 5.93174 11.2573 6.41893 10.0812C6.90611 8.90501 7.73112 7.89973 8.78963 7.19245C9.84815 6.48517 11.0926 6.10767 12.3657 6.10767C14.0728 6.10767 15.71 6.78582 16.9171 7.99294C18.1243 9.20006 18.8024 10.8373 18.8024 12.5444Z" fill="#EF4676"/> -->
<path d="M61.946 11.5672C61.946 13.7753 62.6008 15.9339 63.8277 17.77C65.0545 19.606 66.7982 21.037 68.8383 21.8821C70.8784 22.7271 73.1232 22.9482 75.289 22.5174C77.4548 22.0866 79.4441 21.0233 81.0056 19.4619C82.567 17.9004 83.6303 15.9111 84.0611 13.7453C84.4919 11.5795 84.2708 9.33466 83.4258 7.29456C82.5808 5.25446 81.1497 3.51076 79.3137 2.28395C77.4776 1.05715 75.319 0.402344 73.1109 0.402344C71.6447 0.402344 70.1928 0.691129 68.8383 1.25221C67.4837 1.8133 66.2529 2.63569 65.2161 3.67244C64.1794 4.70919 63.357 5.93998 62.7959 7.29456C62.2348 8.64914 61.946 10.101 61.946 11.5672Z" fill="#A77F5B"/>
<!-- <path d="M65.9896 12.5444C65.9896 13.8175 66.3671 15.0619 67.0743 16.1205C67.7816 17.179 68.7869 18.004 69.9631 18.4912C71.1392 18.9783 72.4334 19.1058 73.682 18.8574C74.9306 18.6091 76.0776 17.996 76.9777 17.0959C77.8779 16.1957 78.491 15.0487 78.7393 13.8001C78.9877 12.5515 78.8602 11.2573 78.3731 10.0812C77.8859 8.90501 77.0609 7.89973 76.0023 7.19245C74.9438 6.48517 73.6994 6.10767 72.4263 6.10767C70.7192 6.10767 69.082 6.78582 67.8748 7.99294C66.6677 9.20006 65.9896 10.8373 65.9896 12.5444Z" fill="#EF4676"/> -->
<path d="M63.169 62.0898C63.1702 66.1976 61.953 70.2136 59.6715 73.6296C57.39 77.0457 54.1467 79.7084 50.3518 81.2809C46.5568 82.8535 42.3807 83.2652 38.3517 82.4641C34.3227 81.663 30.6218 79.685 27.7171 76.7803C24.8124 73.8756 22.8344 70.1747 22.0333 66.1457C21.2322 62.1167 21.6439 57.9406 23.2165 54.1456C24.789 50.3507 27.4517 47.1073 30.8678 44.8258C34.2838 42.5444 38.2997 41.3272 42.4076 41.3284C47.9139 41.3284 53.1946 43.5157 57.0881 47.4092C60.9817 51.3028 63.169 56.5835 63.169 62.0898Z" fill="#FCFADB"/>
<path d="M51.2962 44.6111C51.2962 46.9483 50.3678 49.1897 48.7151 50.8424C47.0624 52.4951 44.821 53.4235 42.4837 53.4235C40.1465 53.4235 37.905 52.4951 36.2524 50.8424C34.5997 49.1897 33.6713 46.9483 33.6713 44.6111C33.6713 39.7425 37.6152 38.543 42.4837 38.543C47.3522 38.543 51.2962 39.7425 51.2962 44.6111Z" fill="#3E2924"/>
<path d="M49.0197 42.4398C49.0197 42.8124 48.9092 43.1767 48.7022 43.4865C48.4952 43.7964 48.2009 44.0378 47.8566 44.1804C47.5124 44.323 47.1335 44.3604 46.7681 44.2877C46.4026 44.215 46.0669 44.0355 45.8034 43.772C45.5399 43.5085 45.3604 43.1728 45.2877 42.8073C45.215 42.4419 45.2523 42.063 45.3949 41.7188C45.5376 41.3745 45.779 41.0802 46.0889 40.8732C46.3987 40.6662 46.763 40.5557 47.1356 40.5557C47.6353 40.5557 48.1145 40.7542 48.4679 41.1075C48.8212 41.4608 49.0197 41.9401 49.0197 42.4398Z" fill="white"/>
<path d="M42.08 66.3087C39.7055 66.3056 37.4292 65.3606 35.7507 63.681C34.0722 62.0014 33.1286 59.7245 33.1271 57.35C33.1499 57 33.305 56.6718 33.5609 56.4321C33.8169 56.1923 34.1544 56.0588 34.5051 56.0588C34.8558 56.0588 35.1934 56.1923 35.4493 56.4321C35.7052 56.6718 35.8604 57 35.8832 57.35C35.8577 58.1801 35.9991 59.007 36.2992 59.7815C36.5993 60.556 37.0519 61.2623 37.6301 61.8585C38.2083 62.4548 38.9004 62.9288 39.6653 63.2526C40.4302 63.5763 41.2523 63.7431 42.0829 63.7431C42.9135 63.7431 43.7356 63.5763 44.5005 63.2526C45.2654 62.9288 45.9575 62.4548 46.5357 61.8585C47.1139 61.2623 47.5665 60.556 47.8666 59.7815C48.1667 59.007 48.3082 58.1801 48.2827 57.35C48.3055 57 48.4606 56.6718 48.7165 56.4321C48.9724 56.1923 49.31 56.0588 49.6607 56.0588C50.0114 56.0588 50.349 56.1923 50.6049 56.4321C50.8608 56.6718 51.0159 57 51.0387 57.35C51.0356 59.725 50.0908 62.0019 48.4114 63.6813C46.7319 65.3608 44.455 66.3056 42.08 66.3087Z" fill="#3E2924"/>
<path d="M29.8853 38.6482C29.5206 38.6482 29.1708 38.5033 28.913 38.2455C28.6551 37.9876 28.5102 37.6378 28.5102 37.2731C28.5102 36.5747 28.2328 35.905 27.7389 35.4111C27.2451 34.9173 26.5753 34.6399 25.877 34.6399C25.1786 34.6399 24.5088 34.9173 24.015 35.4111C23.5212 35.905 23.2438 36.5747 23.2438 37.2731C23.2438 37.6378 23.0989 37.9876 22.841 38.2455C22.5831 38.5033 22.2334 38.6482 21.8686 38.6482C21.5039 38.6482 21.1542 38.5033 20.8963 38.2455C20.6384 37.9876 20.4935 37.6378 20.4935 37.2731C20.4935 35.8453 21.0607 34.476 22.0703 33.4664C23.0799 32.4568 24.4492 31.8896 25.877 31.8896C27.3048 31.8896 28.6741 32.4568 29.6837 33.4664C30.6932 34.476 31.2604 35.8453 31.2604 37.2731C31.2589 37.6373 31.1135 37.9862 30.856 38.2438C30.5984 38.5013 30.2495 38.6467 29.8853 38.6482Z" fill="#3E2924"/>
<path d="M61.0508 38.6482C60.6861 38.6482 60.3363 38.5033 60.0784 38.2455C59.8205 37.9876 59.6757 37.6378 59.6757 37.2731C59.6757 36.5747 59.3982 35.905 58.9044 35.4111C58.4106 34.9173 57.7408 34.6399 57.0424 34.6399C56.3441 34.6399 55.6743 34.9173 55.1805 35.4111C54.6867 35.905 54.4092 36.5747 54.4092 37.2731C54.3864 37.6231 54.2313 37.9512 53.9754 38.191C53.7194 38.4308 53.3819 38.5642 53.0312 38.5642C52.6805 38.5642 52.3429 38.4308 52.087 38.191C51.8311 37.9512 51.676 37.6231 51.6531 37.2731C51.6531 35.8453 52.2203 34.476 53.2299 33.4664C54.2395 32.4568 55.6088 31.8896 57.0366 31.8896C58.4644 31.8896 59.8337 32.4568 60.8433 33.4664C61.8529 34.476 62.42 35.8453 62.42 37.2731C62.42 37.6368 62.276 37.9857 62.0193 38.2434C61.7627 38.5011 61.4145 38.6467 61.0508 38.6482Z" fill="#3E2924"/>
<defs>
<linearGradient id="paint0_linear_372_1071" x1="42.4077" y1="3.85481" x2="42.4077" y2="31.4274" gradientUnits="userSpaceOnUse">
<stop stop-color="white"/>
<stop offset="1" stop-color="#A77F5B"/>
</linearGradient>
</defs>
</svg>
