<svg width="17" height="16" viewBox="0 0 17 16" fill="none" xmlns="http://www.w3.org/2000/svg">
<path d="M8.40771 14.9999C4.54771 14.9999 1.40771 11.8599 1.40771 7.99988C1.40771 4.13988 4.54771 0.999878 8.40771 0.999878C12.2677 0.999878 15.4077 4.13988 15.4077 7.99988C15.4077 11.8599 12.2677 14.9999 8.40771 14.9999ZM8.40771 1.99988C5.09771 1.99988 2.40771 4.68988 2.40771 7.99988C2.40771 11.3099 5.09771 13.9999 8.40771 13.9999C11.7177 13.9999 14.4077 11.3099 14.4077 7.99988C14.4077 4.68988 11.7177 1.99988 8.40771 1.99988Z" fill="black"/>
<path d="M8.40771 4.49988C7.29771 4.49988 6.40771 5.38988 6.40771 6.49988H7.40771C7.40771 5.94988 7.85771 5.49988 8.40771 5.49988C8.95771 5.49988 9.40771 5.94988 9.40771 6.49988C9.40771 7.49988 7.90771 7.37988 7.90771 8.99988H8.90771C8.90771 7.87988 10.4077 7.74988 10.4077 6.49988C10.4077 5.38988 9.51771 4.49988 8.40771 4.49988Z" fill="black"/>
<path d="M8.40772 11.6199C8.75014 11.6199 9.02772 11.3423 9.02772 10.9999C9.02772 10.6575 8.75014 10.3799 8.40772 10.3799C8.0653 10.3799 7.78772 10.6575 7.78772 10.9999C7.78772 11.3423 8.0653 11.6199 8.40772 11.6199Z" fill="black"/>
<path d="M6.90771 6.99988C7.18386 6.99988 7.40771 6.77602 7.40771 6.49988C7.40771 6.22374 7.18386 5.99988 6.90771 5.99988C6.63157 5.99988 6.40771 6.22374 6.40771 6.49988C6.40771 6.77602 6.63157 6.99988 6.90771 6.99988Z" fill="black"/>
<path d="M8.40771 9.49988C8.68386 9.49988 8.90771 9.27602 8.90771 8.99988C8.90771 8.72374 8.68386 8.49988 8.40771 8.49988C8.13157 8.49988 7.90771 8.72374 7.90771 8.99988C7.90771 9.27602 8.13157 9.49988 8.40771 9.49988Z" fill="black"/>
</svg>
