<svg id="Layer_1" data-name="Layer 1" xmlns="http://www.w3.org/2000/svg" viewBox="0 0 377.32 202.6"><path d="M86.86,115.52H73.93v-7.28h-11v10.62H49.86V10.25h37ZM73.93,95.24V23.33h-11V95.24ZM179.64,28.16H129.72a150.13,150.13,0,0,1-10.33,24.07h13.53V35.66h13.59V52.23h27.93V108a10.6,10.6,0,0,1-1.78,5.87,10.93,10.93,0,0,1-4.38,4q-2.61,1.26-10,1.26c-1.49,0-2.83,0-4-.15l-3.94-13.22a37.21,37.21,0,0,0,5.72.44c3.66,0,5.5-1.21,5.5-3.64V65h-15v67.53H132.92V65H117.54v53.72H104.61v-46a62.2,62.2,0,0,1-8.77,9.58l-6.68-12q20.06-22.42,26-42.19H92.8V15.38H119A100.75,100.75,0,0,0,122,0l13.53,1.71a74.79,74.79,0,0,1-2.46,13.67h46.58Z"/><path d="M241.9,115.37H228.67v-7h-13v10.77H202.45V11H241.9Zm-13.23-20V24.07h-13V95.39Zm103.86-31H322.8q-.53,18.35-1.63,35.58h9.58v12.48H319.9q-.37,9.23-3.34,13.67a15,15,0,0,1-7.62,6.1q-4.63,1.62-16.45,1.63c-3,0-5.75-.07-8.17-.22l-4.24-12.78q4.83.3,10.18.3,10.39,0,12.07-.71a6.07,6.07,0,0,0,2.86-2.93,10.62,10.62,0,0,0,1.19-5.06H250.07l4.61-48.06h-8.4V51.63h9q1.78-30.31,2.45-47.17h66q.14,19.83-.67,47.17h9.43Zm-23.1,0H268.35q-1.43,21.39-2.9,35.58h42.27Zm.29-47.17H270.8q-.9,20.94-1.86,34.39h40.34q.74-14.12.74-23Q310,22.59,309.72,17.24Zm-7.87,72.43-12.18,5.72A133.74,133.74,0,0,0,274.44,74l12.18-6.09A103.75,103.75,0,0,1,301.85,89.67Zm-.15-47.92-12.18,5.72a121,121,0,0,0-13.89-20.21l12-6.38A115.52,115.52,0,0,1,301.7,41.75Z"/><path d="M41.77,177.69H17.27l-1.8,2.69H36.68v21.87H32.34v-2.2H14.6v2.2H10.22V186.8A57.5,57.5,0,0,1,3,193.23L0,190a49.28,49.28,0,0,0,12.38-12.28H.68v-3.31H14.39c.49-.86.95-1.77,1.41-2.74H2.51v-3.21H17.27l1-2.65q-10.47.28-13.92.33L2.7,162.38c2,.05,4,.07,5.88.07a151.76,151.76,0,0,0,28.24-2.39l2.65,3.28a133.25,133.25,0,0,1-16.62,2.11,30.28,30.28,0,0,1-1.1,3H40v3.21H20.51c-.5,1-1,2-1.46,2.74H41.77Zm-9.43,8.39v-2.3H14.6v2.3Zm0,5.08V189H14.6v2.15Zm0,5.58v-2.51H14.6v2.51Z"/><path d="M90.38,192.94q-.28,5.42-1.53,7.29a4.63,4.63,0,0,1-4.17,1.88q-6.59,0-8.94-.06a10.06,10.06,0,0,1-3.2-.42,3.39,3.39,0,0,1-1.45-1.23,4.61,4.61,0,0,1-.61-2.65V186q-2.3,10.41-20.32,16.43l-2-3.89a44.57,44.57,0,0,0,11.31-5,15.25,15.25,0,0,0,5.8-6.09A20.8,20.8,0,0,0,67,180.34q.27-3.92.16-12.45l4.42.05A140.76,140.76,0,0,1,71,183.41h3.7v13.28q0,1,1.5,1.14t5.16.15a11.35,11.35,0,0,0,3.6-.3c.35-.2.64-.86.88-2a25.73,25.73,0,0,0,.42-4.39Zm-4.65-4.21H81.35V165.55H56.88v23.18H52.62V161.47H85.73Z"/><path d="M109.2,161q-.87,2.64-2.56,6.54l-1.71,3.72v31.13H100.8V178.2c-.5.67-1.49,1.88-3,3.61l-2.25-4.36a49,49,0,0,0,9.35-17.58Zm28.17,4.75a48.72,48.72,0,0,1-3.49,13.15l-3.94-1.64a38.66,38.66,0,0,0,2.25-7.57h-15.8a52.84,52.84,0,0,1-7.1,10.17l-2.88-3.11a50.32,50.32,0,0,0,9.51-16.62l4.08,1c-.73,2-1.33,3.58-1.78,4.61Zm-19.1,14.44q-3.31,11-8.21,17.16l-3.35-2.6a53.64,53.64,0,0,0,7.67-15.66ZM125,197.66c0,3-1.49,4.45-4.46,4.45-2.64,0-4.44,0-5.39-.05l-1.38-4.26,4.64.16q2.37,0,2.37-1.59V172.69H125Zm13.59-2.25-3.89,2a83.67,83.67,0,0,0-7-16.94l3.73-1.55A90.1,90.1,0,0,1,138.54,195.41Z"/><path d="M162.33,201.78H158.2v-3.16h-8.67v3.63h-4.24V167.33h4.29a31.61,31.61,0,0,0,2.81-7.31l4.43.72a28.87,28.87,0,0,1-2.25,6.59h7.76Zm-4.13-21.4V171.5h-8.67v8.88Zm0,14.11V184.41h-8.67v10.08Zm27.33-26.93q0,6.9-.49,17.87t-1.31,12.95a5.81,5.81,0,0,1-2.64,2.9c-1.18.61-4.05.94-8.61,1l-1.6-4.22,6.42-.05a3.28,3.28,0,0,0,1.95-.77c.69-.52,1.2-4,1.55-10.43s.5-11.45.49-15.05h-9.63a46.19,46.19,0,0,1-5.09,9.75l-3.28-2.93a56.59,56.59,0,0,0,7.26-18.63l4.22.92q-.47,2.43-1.68,6.72Zm-7,21.45-3.75,2.41a50.88,50.88,0,0,0-6.63-10.33l3.75-2.35A48,48,0,0,1,178.57,189Z"/><path d="M201.47,175.67q-2.24,13.83-5.86,21.7l-3.89-2.32a73.6,73.6,0,0,0,5.46-20.25ZM224.74,188q-.13,4.59-.5,7.41a10.06,10.06,0,0,1-.94,3.68,6.47,6.47,0,0,1-1.71,1.66,6.35,6.35,0,0,1-3.2.95q-2.05.15-4.41.15c-1.73,0-3.36-.07-4.89-.2a6.83,6.83,0,0,1-3.06-.74,3.75,3.75,0,0,1-1.21-1.47,5.27,5.27,0,0,1-.44-2.28V170.59h4.28V196c0,1.15.7,1.71,2.1,1.66s3.74-.07,7-.07a2.75,2.75,0,0,0,1.54-.51c.5-.33.85-1.73,1-4.2s.27-4.52.27-6.14Zm-3.84-14.79-3.66,2.65a59.41,59.41,0,0,0-9.89-13.2l3-2.64A63.55,63.55,0,0,1,220.9,173.21Zm13.38,20.65-4.17,2a75.65,75.65,0,0,0-7.34-18.78l3.75-2A92.27,92.27,0,0,1,234.28,193.86Z"/><path d="M254.7,191.94a117.18,117.18,0,0,1-13.36,6.91l-1.48-4.08c1.16-.45,3.06-1.32,5.72-2.6V180.22H241v-4h4.62v-9.49h-5.35V162.9H254.6v3.84h-4.9v9.49h4.18v4H249.7V190a33.52,33.52,0,0,0,4.85-2.53ZM282,201.1H254.51v-3.89H266.3v-4.73H256.17v-3.8H266.3v-4.13h-9.82v-23h23.69v23h-9.68v4.13h10.36v3.8H270.49v4.73H282Zm-15.7-30v-5.74h-5.6v5.74Zm0,9.71v-6.24h-5.6v6.24Zm9.7-9.71v-5.74h-5.51v5.74Zm0,9.71v-6.24h-5.51v6.24Z"/><path d="M301.73,198.29q0,3.87-4.92,3.87A10.17,10.17,0,0,1,295,202l-1.15-4a15.09,15.09,0,0,0,1.81.1,5.14,5.14,0,0,0,1.88-.19.75.75,0,0,0,.34-.73V186a30.72,30.72,0,0,1-3.11,3.75l-1.2-2.11q-.16,9.27-2.32,14.63l-3.35-2.72a38.9,38.9,0,0,0,1.73-12.19V161.16h12.14Zm-3.89-24.12v-9h-4.31v5.2l2.3-1.78A33.12,33.12,0,0,1,297.84,174.17Zm0,5.49v-3.31l-2.69,1.85a48.53,48.53,0,0,0-1.62-5.65v12.57A36.18,36.18,0,0,0,297.84,179.66Zm15.31-2.75a31.68,31.68,0,0,1-8.06,22.32l-2.75-3.17a25.57,25.57,0,0,0,6.68-15.3h-5.81v-3.85Zm17.39,18.59L328.08,199a43.44,43.44,0,0,1-9.26-14.2v13a4,4,0,0,1-.77,2.54,3.68,3.68,0,0,1-1.87,1.33,13.21,13.21,0,0,1-3.5.33c-.84,0-1.62,0-2.32-.07L309,197.94c3,0,4.72,0,5.1-.1s.58-.33.58-.82V172.37H304.62v-4h14.2v4.5a21.24,21.24,0,0,0,1.92,7.38,56.78,56.78,0,0,0,5.46-8.06l3.21,2.64a65.46,65.46,0,0,1-6.93,9.57A36.27,36.27,0,0,0,330.54,195.5Zm-5.2-31.45-1.86,3.84a72,72,0,0,0-16.1-4.27l1.69-3.84A82.53,82.53,0,0,1,325.34,164.05Z"/><path d="M356.79,194.87l-3.52,2.25a14.88,14.88,0,0,0-.7-1.76,146,146,0,0,1-15.07,4.78l-1.22-3.63a79.59,79.59,0,0,0,7.45-18.45h-7.64V174H356.7v4.08h-8.65a120.51,120.51,0,0,1-6.19,16.62q3.39-.92,9.07-3-1.1-2.21-2.84-5.09l3.57-2A54.09,54.09,0,0,1,356.79,194.87ZM355,165.59H337.78v-3.93H355Zm22.36,3.8q-.37,10.91-1,19.7c-.42,5.87-.81,9.29-1.18,10.28a4.5,4.5,0,0,1-1.76,2.26,6.31,6.31,0,0,1-3.43.78c-.71,0-2.13,0-4.27-.09l-1.55-4.1c1.58.12,3,.19,4.15.19a5.7,5.7,0,0,0,2.41-.31,1.81,1.81,0,0,0,.71-1c.16-.48.42-3.39.8-8.73s.65-10.33.82-15h-7q-1.25,21.16-8.84,29.23l-3.07-2.83q6.92-8.37,7.83-26.4h-4.85v-4h5c.06-1.22.09-2.67.09-4.36,0-1.12,0-2.62,0-4.48h4.07c0,1.07,0,2.13,0,3.19,0,1.78,0,3.67-.14,5.65Z"/></svg>