<svg id="Layer_1" data-name="Layer 1" xmlns="http://www.w3.org/2000/svg" viewBox="0 0 282.67 133.87"><path d="M37,115.52H24.07v-7.28h-11v10.62H0V10.25H37ZM24.07,95.24V23.33h-11V95.24ZM129.78,28.16H79.86A150.1,150.1,0,0,1,69.54,52.23H83.06V35.66H96.65V52.23h27.93V108a10.6,10.6,0,0,1-1.78,5.87,10.93,10.93,0,0,1-4.38,4q-2.61,1.26-10,1.26c-1.49,0-2.82,0-4-.15l-3.94-13.22a37.21,37.21,0,0,0,5.72.44c3.66,0,5.5-1.21,5.5-3.64V65h-15v67.53H83.06V65H67.68v53.72H54.75v-46A62.62,62.62,0,0,1,46,82.31l-6.69-12q20.06-22.42,26-42.19H42.94V15.38H69.09A100.79,100.79,0,0,0,72.14,0L85.66,1.71A74.79,74.79,0,0,1,83.2,15.38h46.58Z"/><path d="M192,115.37H178.82v-7h-13v10.77H152.59V11H192Zm-13.22-20V24.07h-13V95.39Zm103.85-31h-9.73q-.53,18.35-1.63,35.58h9.58v12.48H270q-.37,9.23-3.34,13.67a15,15,0,0,1-7.61,6.1q-4.65,1.63-16.46,1.63c-3,0-5.75-.07-8.17-.22l-4.24-12.78c3.22.2,6.62.3,10.18.3q10.4,0,12.07-.71a6.07,6.07,0,0,0,2.86-2.93,10.5,10.5,0,0,0,1.19-5.06H200.21l4.61-48.06h-8.4V51.63h9q1.78-30.31,2.45-47.17h66.05q.13,19.83-.67,47.17h9.43Zm-23.1,0H218.49q-1.43,21.39-2.9,35.58h42.27Zm.3-47.17H220.94q-.9,20.94-1.86,34.39h40.34q.74-14.12.74-23Q260.16,22.59,259.87,17.24ZM252,89.67l-12.18,5.72A133.11,133.11,0,0,0,224.58,74l12.18-6.09A103.75,103.75,0,0,1,252,89.67Zm-.15-47.92-12.18,5.72a121,121,0,0,0-13.89-20.21l12-6.38A115.52,115.52,0,0,1,251.84,41.75Z"/></svg>