<svg width="12" height="14" viewBox="0 0 12 14" fill="none" xmlns="http://www.w3.org/2000/svg">
<path d="M4.40773 6.99992C4.40773 7.44195 4.23214 7.86587 3.91958 8.17843C3.60702 8.49099 3.1831 8.66659 2.74107 8.66659C2.29904 8.66659 1.87512 8.49099 1.56256 8.17843C1.25 7.86587 1.0744 7.44195 1.0744 6.99992C1.0744 6.55789 1.25 6.13397 1.56256 5.82141C1.87512 5.50885 2.29904 5.33325 2.74107 5.33325C3.1831 5.33325 3.60702 5.50885 3.91958 5.82141C4.23214 6.13397 4.40773 6.55789 4.40773 6.99992Z" stroke="black"/>
<path d="M7.74105 3.33325L4.40771 5.66659M7.74105 10.6666L4.40771 8.33325" stroke="black" stroke-linecap="round"/>
<path d="M11.0744 11.3332C11.0744 11.7752 10.8988 12.1992 10.5863 12.5117C10.2737 12.8243 9.84978 12.9999 9.40776 12.9999C8.96573 12.9999 8.5418 12.8243 8.22924 12.5117C7.91668 12.1992 7.74109 11.7752 7.74109 11.3332C7.74109 10.8912 7.91668 10.4673 8.22924 10.1547C8.5418 9.84214 8.96573 9.66654 9.40776 9.66654C9.84978 9.66654 10.2737 9.84214 10.5863 10.1547C10.8988 10.4673 11.0744 10.8912 11.0744 11.3332ZM11.0744 2.66654C11.0744 3.10857 10.8988 3.5325 10.5863 3.84506C10.2737 4.15762 9.84978 4.33321 9.40776 4.33321C8.96573 4.33321 8.5418 4.15762 8.22924 3.84506C7.91668 3.5325 7.74109 3.10857 7.74109 2.66654C7.74109 2.22452 7.91668 1.80059 8.22924 1.48803C8.5418 1.17547 8.96573 0.999878 9.40776 0.999878C9.84978 0.999878 10.2737 1.17547 10.5863 1.48803C10.8988 1.80059 11.0744 2.22452 11.0744 2.66654Z" stroke="black"/>
</svg>
