<svg width="84" height="85" viewBox="0 0 84 85" fill="none" xmlns="http://www.w3.org/2000/svg">
<path d="M80.8857 52.142C80.8857 69.9977 63.379 84.4742 41.7836 84.4742C20.1881 84.4742 2.67554 70.0035 2.67554 52.142C2.67554 34.2805 20.1881 6.19421 41.7836 6.19421C63.379 6.19421 80.8857 34.2922 80.8857 52.142Z" fill="#946841"/>
<path d="M79.4085 51.0197C79.4085 68.6427 62.5416 82.933 41.7836 82.933C21.0257 82.933 4.14709 68.6427 4.14709 51.0197C4.14709 33.3966 21.014 5.65344 41.7778 5.65344C62.5416 5.65344 79.4085 33.3966 79.4085 51.0197Z" fill="#A77F5B"/>
<path opacity="0.5" d="M76.4538 50.3972C76.4538 66.636 60.9304 79.8038 41.7835 79.8038C22.6367 79.8038 7.10748 66.6128 7.10748 50.3972C7.10748 34.1817 22.6309 8.60217 41.7835 8.60217C60.9362 8.60217 76.4538 34.1119 76.4538 50.3972Z" fill="url(#paint0_linear_372_1075)"/>
<path d="M22.3634 11.0973C22.3634 13.2921 21.7125 15.4376 20.4931 17.2626C19.2738 19.0875 17.5406 20.5099 15.5129 21.3498C13.4851 22.1897 11.2538 22.4095 9.10115 21.9813C6.94849 21.5531 4.97114 20.4962 3.41915 18.9442C1.86717 17.3922 0.810251 15.4149 0.38206 13.2622C-0.0461304 11.1096 0.173628 8.87829 1.01355 6.85053C1.85348 4.82277 3.27585 3.08961 5.10078 1.87023C6.92572 0.650844 9.07127 0 11.2661 0C14.2088 0.00154109 17.0306 1.17121 19.1114 3.25201C21.1922 5.33282 22.3618 8.15456 22.3634 11.0973Z" fill="#A77F5B"/>
<!-- <path d="M18.3211 12.0686C18.3211 13.3339 17.9459 14.5709 17.2429 15.623C16.5399 16.6751 15.5407 17.4951 14.3717 17.9794C13.2026 18.4636 11.9162 18.5903 10.6752 18.3434C9.43411 18.0966 8.29412 17.4872 7.39937 16.5925C6.50462 15.6977 5.89531 14.5578 5.64845 13.3167C5.40159 12.0757 5.52829 10.7893 6.01252 9.62024C6.49676 8.4512 7.31677 7.45199 8.36889 6.74899C9.421 6.04599 10.6579 5.67078 11.9233 5.67078C13.6201 5.67078 15.2474 6.34482 16.4472 7.54464C17.6471 8.74446 18.3211 10.3718 18.3211 12.0686Z" fill="#EF4676"/> -->
<path d="M61.2038 11.0973C61.2038 13.2921 61.8546 15.4376 63.074 17.2626C64.2934 19.0875 66.0266 20.5099 68.0544 21.3498C70.0821 22.1897 72.3134 22.4095 74.4661 21.9813C76.6187 21.5531 78.596 20.4962 80.148 18.9442C81.7 17.3922 82.7569 15.4149 83.1851 13.2622C83.6133 11.1096 83.3935 8.87829 82.5536 6.85053C81.7137 4.82277 80.2913 3.08961 78.4664 1.87023C76.6415 0.650844 74.4959 0 72.3011 0C69.3579 0 66.5353 1.16917 64.4541 3.25031C62.373 5.33145 61.2038 8.15409 61.2038 11.0973Z" fill="#A77F5B"/>
<!-- <path d="M65.217 12.0686C65.217 13.3339 65.5922 14.5709 66.2952 15.623C66.9982 16.6751 67.9974 17.4951 69.1664 17.9794C70.3355 18.4636 71.6219 18.5903 72.8629 18.3434C74.104 18.0966 75.244 17.4872 76.1387 16.5925C77.0335 15.6977 77.6428 14.5578 77.8896 13.3167C78.1365 12.0757 78.0098 10.7893 77.5256 9.62024C77.0413 8.4512 76.2213 7.45199 75.1692 6.74899C74.1171 6.04599 72.8801 5.67078 71.6148 5.67078C69.918 5.67078 68.2907 6.34482 67.0908 7.54464C65.891 8.74446 65.217 10.3718 65.217 12.0686Z" fill="#EF4676"/> -->
<path d="M62.1688 64.6308C63.9949 53.3812 56.3556 42.7812 45.106 40.9552C33.8564 39.1291 23.2565 46.7684 21.4304 58.018C19.6043 69.2676 27.2436 79.8675 38.4932 81.6936C49.7428 83.5197 60.3427 75.8804 62.1688 64.6308Z" fill="#FCFADB"/>
<path d="M50.6184 43.9413C50.6184 46.2643 49.6955 48.4923 48.0528 50.1349C46.4102 51.7776 44.1823 52.7004 41.8592 52.7004C39.5361 52.7004 37.3082 51.7776 35.6655 50.1349C34.0229 48.4923 33.1 46.2643 33.1 43.9413C33.1 39.1022 37.0201 37.9041 41.8592 37.9041C46.6983 37.9041 50.6184 39.1022 50.6184 43.9413Z" fill="#3E2924"/>
<path d="M48.35 41.7835C48.35 42.1539 48.2401 42.516 48.0344 42.8239C47.8286 43.1319 47.5361 43.372 47.1939 43.5137C46.8517 43.6554 46.4751 43.6925 46.1118 43.6203C45.7485 43.548 45.4148 43.3697 45.1529 43.1077C44.891 42.8458 44.7126 42.5121 44.6404 42.1488C44.5681 41.7855 44.6052 41.409 44.7469 41.0668C44.8887 40.7246 45.1287 40.4321 45.4367 40.2263C45.7447 40.0205 46.1068 39.9106 46.4772 39.9106C46.9739 39.9106 47.4502 40.108 47.8015 40.4592C48.1527 40.8104 48.35 41.2868 48.35 41.7835Z" fill="white"/>
<path d="M29.5405 32.2915C29.5405 35.3159 28.3773 37.7645 26.9814 37.7645C25.5855 37.7645 24.4164 35.3159 24.4164 32.2915C24.4164 29.267 25.5797 26.8126 26.9814 26.8126C28.3831 26.8126 29.5405 29.267 29.5405 32.2915Z" fill="#3E2924"/>
<path d="M59.1449 32.2915C59.1449 35.3159 57.9816 37.7645 56.5857 37.7645C55.1898 37.7645 54.0208 35.3159 54.0208 32.2915C54.0208 29.267 55.184 26.8126 56.5857 26.8126C57.9874 26.8126 59.1449 29.267 59.1449 32.2915Z" fill="#3E2924"/>
<path d="M53.7649 62.6811C53.5314 62.6814 53.3018 62.6216 53.098 62.5076C52.8943 62.3935 52.7234 62.2289 52.6017 62.0297C50.6765 58.9006 48.7571 59.36 44.5928 60.6978C42.5694 61.4215 40.4727 61.9208 38.3404 62.1867C30.6514 62.9428 28.7437 59.203 28.5459 58.7726C28.3917 58.4425 28.3749 58.0646 28.4992 57.7221C28.6236 57.3797 28.8789 57.1006 29.209 56.9463C29.5391 56.7921 29.917 56.7753 30.2594 56.8996C30.6019 57.024 30.881 57.2793 31.0352 57.6094C31.1167 57.7606 32.4486 59.9998 38.067 59.4531C40.0069 59.2014 41.914 58.7412 43.7552 58.0805C47.7102 56.8067 51.799 55.4865 54.9339 60.5872C55.1228 60.8965 55.1812 61.2682 55.0961 61.6205C55.011 61.9728 54.7895 62.2769 54.4803 62.4659C54.2671 62.6041 54.0189 62.6787 53.7649 62.6811Z" fill="#3E2924"/>
<defs>
<linearGradient id="paint0_linear_372_1075" x1="41.7835" y1="3.43159" x2="41.7835" y2="30.8374" gradientUnits="userSpaceOnUse">
<stop stop-color="white"/>
<stop offset="1" stop-color="#A77F5B"/>
</linearGradient>
</defs>
</svg>
