<svg width="13" height="12" viewBox="0 0 13 12" fill="none" xmlns="http://www.w3.org/2000/svg">
<path d="M1.0744 9.9998C1.0744 9.29255 1.35535 8.61428 1.85545 8.11418C2.35555 7.61408 3.03382 7.33313 3.74107 7.33313H9.0744C9.78165 7.33313 10.4599 7.61408 10.96 8.11418C11.4601 8.61428 11.7411 9.29255 11.7411 9.9998C11.7411 10.3534 11.6006 10.6926 11.3505 10.9426C11.1005 11.1927 10.7614 11.3331 10.4077 11.3331H2.40774C2.05411 11.3331 1.71497 11.1927 1.46493 10.9426C1.21488 10.6926 1.0744 10.3534 1.0744 9.9998Z" stroke="black" stroke-linejoin="round"/>
<path d="M6.40771 4.6665C7.51228 4.6665 8.40771 3.77107 8.40771 2.6665C8.40771 1.56193 7.51228 0.666504 6.40771 0.666504C5.30315 0.666504 4.40771 1.56193 4.40771 2.6665C4.40771 3.77107 5.30315 4.6665 6.40771 4.6665Z" stroke="black"/>
</svg>
