<svg width="85" height="86" viewBox="0 0 85 86" fill="none" xmlns="http://www.w3.org/2000/svg">
<path d="M82.1621 53.3302C82.1621 71.3004 64.5489 85.865 42.822 85.865C21.0951 85.865 3.48181 71.3004 3.48181 53.3302C3.48181 35.36 21.0951 7.10278 42.822 7.10278C64.5489 7.10278 82.1621 35.3659 82.1621 53.3302Z" fill="#946841"/>
<path d="M80.6816 52.2009C80.6816 69.9312 63.712 84.3026 42.8219 84.3026C21.9318 84.3026 4.96808 69.9312 4.96808 52.2009C4.96808 34.4706 21.9376 6.55859 42.8219 6.55859C63.7062 6.55859 80.6816 34.4648 80.6816 52.2009Z" fill="#A77F5B"/>
<path opacity="0.5" d="M77.709 51.5453C77.709 67.8887 62.0912 81.1308 42.8219 81.1308C23.5527 81.1308 7.94067 67.8887 7.94067 51.5453C7.94067 35.2018 23.5586 9.49585 42.8219 9.49585C62.0853 9.49585 77.709 35.2077 77.709 51.5453Z" fill="url(#paint0_linear_372_1076)"/>
<path d="M23.2834 12.0298C23.2834 14.238 22.6286 16.3966 21.4018 18.2326C20.175 20.0687 18.4313 21.4997 16.3912 22.3447C14.3511 23.1898 12.1062 23.4109 9.94048 22.9801C7.77472 22.5493 5.78533 21.4859 4.22391 19.9245C2.66248 18.3631 1.59913 16.3737 1.16833 14.2079C0.737535 12.0422 0.958631 9.79732 1.80367 7.75722C2.64871 5.71711 4.07973 3.97341 5.91577 2.74661C7.75181 1.5198 9.91041 0.86499 12.1186 0.86499C15.0797 0.86499 17.9195 2.04128 20.0133 4.13509C22.1071 6.2289 23.2834 9.06872 23.2834 12.0298Z" fill="#A77F5B"/>
<!-- <path d="M19.2225 13.007C19.2225 14.2801 18.845 15.5246 18.1377 16.5831C17.4304 17.6416 16.4251 18.4666 15.249 18.9538C14.0728 19.441 12.7786 19.5685 11.53 19.3201C10.2814 19.0717 9.13445 18.4587 8.23426 17.5585C7.33407 16.6583 6.72104 15.5114 6.47268 14.2628C6.22432 13.0142 6.35179 11.72 6.83897 10.5438C7.32616 9.36766 8.15116 8.36238 9.20968 7.65511C10.2682 6.94783 11.5127 6.57031 12.7857 6.57031C14.4929 6.57031 16.13 7.24847 17.3372 8.45559C18.5443 9.66271 19.2225 11.2999 19.2225 13.007Z" fill="#EF4676"/> -->
<path d="M62.3603 12.0298C62.3603 14.238 63.0151 16.3966 64.2419 18.2326C65.4687 20.0687 67.2124 21.4997 69.2525 22.3447C71.2926 23.1898 73.5375 23.4109 75.7033 22.9801C77.869 22.5493 79.8584 21.4859 81.4198 19.9245C82.9812 18.3631 84.0446 16.3737 84.4754 14.2079C84.9062 12.0422 84.6851 9.79732 83.84 7.75722C82.995 5.71711 81.564 3.97341 79.7279 2.74661C77.8919 1.5198 75.7333 0.86499 73.5251 0.86499C72.0589 0.86499 70.6071 1.15378 69.2525 1.71487C67.898 2.27595 66.6672 3.09834 65.6304 4.13509C64.5937 5.17184 63.7713 6.40264 63.2102 7.75722C62.6491 9.11179 62.3603 10.5636 62.3603 12.0298Z" fill="#A77F5B"/>
<!-- <path d="M66.4272 13.007C66.4272 14.2801 66.8047 15.5246 67.512 16.5831C68.2192 17.6416 69.2245 18.4666 70.4007 18.9538C71.5768 19.441 72.8711 19.5685 74.1197 19.3201C75.3683 19.0717 76.5152 18.4587 77.4154 17.5585C78.3156 16.6583 78.9286 15.5114 79.177 14.2628C79.4253 13.0142 79.2979 11.72 78.8107 10.5438C78.3235 9.36766 77.4985 8.36238 76.44 7.65511C75.3815 6.94783 74.137 6.57031 72.8639 6.57031C71.1568 6.57031 69.5196 7.24847 68.3125 8.45559C67.1054 9.66271 66.4272 11.2999 66.4272 13.007Z" fill="#EF4676"/> -->
<path d="M63.5833 62.5521C63.5833 66.6584 62.3657 70.6724 60.0844 74.0866C57.8031 77.5008 54.5606 80.1618 50.767 81.7332C46.9733 83.3046 42.7989 83.7157 38.7716 82.9146C34.7443 82.1135 31.0449 80.1362 28.1414 77.2327C25.2379 74.3292 23.2606 70.6298 22.4595 66.6025C21.6584 62.5752 22.0695 58.4008 23.6409 54.6071C25.2123 50.8135 27.8733 47.571 31.2875 45.2897C34.7017 43.0084 38.7157 41.7908 42.822 41.7908C45.5484 41.7908 48.2481 42.3278 50.767 43.3712C53.2859 44.4145 55.5746 45.9438 57.5025 47.8716C59.4303 49.7995 60.9596 52.0882 62.003 54.6071C63.0463 57.126 63.5833 59.8257 63.5833 62.5521Z" fill="#FCFADB"/>
<path d="M51.6929 45.0737C51.6336 47.3724 50.6789 49.557 49.0321 51.1618C47.3854 52.7667 45.1769 53.6649 42.8775 53.6649C40.578 53.6649 38.3696 52.7667 36.7228 51.1618C35.0761 49.557 34.1213 47.3724 34.0621 45.0737C34.0621 40.2052 38.0119 38.9998 42.8804 38.9998C47.7489 38.9998 51.6929 40.2227 51.6929 45.0737Z" fill="#3E2924"/>
<path d="M49.4049 42.9025C49.4049 43.2752 49.2944 43.6395 49.0873 43.9493C48.8803 44.2592 48.586 44.5007 48.2417 44.6433C47.8975 44.7859 47.5186 44.8232 47.1531 44.7505C46.7876 44.6778 46.4519 44.4984 46.1884 44.2349C45.9249 43.9713 45.7454 43.6356 45.6727 43.2701C45.6 42.9046 45.6373 42.5258 45.7799 42.1815C45.9225 41.8372 46.164 41.5429 46.4739 41.3359C46.7837 41.1288 47.148 41.0183 47.5207 41.0183C48.0204 41.0183 48.4997 41.2168 48.853 41.5702C49.2064 41.9236 49.4049 42.4028 49.4049 42.9025Z" fill="white"/>
<path d="M19.322 39.6959C18.9934 39.6929 18.6766 39.5727 18.4286 39.3571C18.1806 39.1414 18.0177 38.8444 17.969 38.5194C17.9204 38.1944 17.9892 37.8627 18.1632 37.5839C18.3372 37.3051 18.6049 37.0974 18.9183 36.9983C21.844 36.103 25.2555 36.0679 27.7366 36.2259C26.8562 35.4811 25.8251 34.9355 24.7141 34.6264C23.6031 34.3173 22.4384 34.2522 21.2998 34.4353C20.9532 34.4929 20.5978 34.4161 20.3058 34.2208C20.0137 34.0254 19.8072 33.7261 19.7281 33.3837C19.649 33.0414 19.7034 32.6818 19.8802 32.3782C20.057 32.0745 20.3428 31.8497 20.6796 31.7494C23.1548 31.1643 28.743 31.5973 32.1604 37.2616C32.2976 37.4881 32.3666 37.7495 32.3589 38.0142C32.3512 38.279 32.2672 38.5358 32.117 38.754C31.9668 38.9722 31.7568 39.1423 31.5123 39.244C31.2677 39.3457 30.999 39.3746 30.7384 39.3272C30.6741 39.3272 24.3427 38.2213 19.7316 39.6374C19.5988 39.6774 19.4607 39.6972 19.322 39.6959Z" fill="#3E2924"/>
<path d="M66.3219 39.696C66.1852 39.6963 66.0491 39.6765 65.9181 39.6375C61.3071 38.2214 54.9757 39.3157 54.9113 39.3274C54.6512 39.3733 54.3833 39.3434 54.1397 39.2412C53.8961 39.1389 53.6872 38.9687 53.5378 38.7508C53.3884 38.5329 53.305 38.2766 53.2974 38.0125C53.2899 37.7485 53.3585 37.4878 53.4952 37.2618C56.9125 31.5974 62.4949 31.1761 64.9702 31.7496C65.3166 31.8366 65.6156 32.055 65.8039 32.3585C65.9922 32.6621 66.0549 33.027 65.9789 33.376C65.9028 33.725 65.694 34.0308 65.3965 34.2285C65.099 34.4262 64.7362 34.5004 64.385 34.4354C63.2464 34.2491 62.081 34.3128 60.9694 34.622C59.8579 34.9312 58.8271 35.4785 57.9483 36.226C60.4293 36.068 63.835 36.1031 66.7666 36.9984C67.0799 37.0975 67.3477 37.3052 67.5216 37.584C67.6956 37.8628 67.7645 38.1945 67.7158 38.5195C67.6672 38.8445 67.5042 39.1416 67.2562 39.3572C67.0082 39.5728 66.6915 39.693 66.3628 39.696H66.3219Z" fill="#3E2924"/>
<path d="M42.8219 61.3759C44.7251 61.3794 46.6069 61.7787 48.3476 62.5483C50.0883 63.3179 51.65 64.4411 52.9334 65.8465C55.4283 63.2473 56.8189 59.7825 56.813 56.1797H28.8308C28.8273 59.782 30.2175 63.246 32.7104 65.8465C33.9938 64.4411 35.5555 63.3179 37.2962 62.5483C39.0369 61.7787 40.9186 61.3794 42.8219 61.3759Z" fill="#512014"/>
<path d="M42.8219 70.1708C44.7123 70.1724 46.5833 69.7899 48.3215 69.0466C50.0597 68.3033 51.6287 67.2145 52.9334 65.8465C51.6528 64.4383 50.0921 63.3132 48.3513 62.5433C46.6106 61.7734 44.7282 61.3757 42.8248 61.3757C40.9214 61.3757 39.039 61.7734 37.2982 62.5433C35.5575 63.3132 33.9968 64.4383 32.7162 65.8465C34.0198 67.2143 35.5878 68.303 37.3249 69.0464C39.0621 69.7897 40.9323 70.1723 42.8219 70.1708Z" fill="#34272A"/>
<defs>
<linearGradient id="paint0_linear_372_1076" x1="42.8219" y1="4.31721" x2="42.8219" y2="31.8898" gradientUnits="userSpaceOnUse">
<stop stop-color="white"/>
<stop offset="1" stop-color="#A77F5B"/>
</linearGradient>
</defs>
</svg>
