<svg width="85" height="86" viewBox="0 0 85 86" fill="none" xmlns="http://www.w3.org/2000/svg">
<path d="M82.1426 52.8676C82.1426 70.8378 64.5294 85.4023 42.8025 85.4023C21.0756 85.4023 3.46234 70.8378 3.46234 52.8676C3.46234 34.8974 21.0756 6.64014 42.8025 6.64014C64.5294 6.64014 82.1426 34.9032 82.1426 52.8676Z" fill="#946841"/>
<path d="M80.6446 51.7382C80.6446 69.4685 63.675 83.84 42.7849 83.84C21.8947 83.84 4.93103 69.4685 4.93103 51.7382C4.93103 34.008 21.9006 6.09595 42.7849 6.09595C63.6691 6.09595 80.6446 34.0021 80.6446 51.7382Z" fill="#A77F5B"/>
<path opacity="0.5" d="M77.672 51.0829C77.672 67.4263 62.0542 80.6684 42.7849 80.6684C23.5157 80.6684 7.90369 67.4263 7.90369 51.0829C7.90369 34.7394 23.5215 9.03345 42.7849 9.03345C62.0483 9.03345 77.672 34.7453 77.672 51.0829Z" fill="url(#paint0_linear_372_1077)"/>
<path d="M23.2465 11.5672C23.2465 13.7753 22.5917 15.9339 21.3649 17.77C20.1381 19.606 18.3944 21.0371 16.3543 21.8821C14.3142 22.7271 12.0693 22.9482 9.90353 22.5174C7.73777 22.0866 5.74841 21.0233 4.18698 19.4619C2.62556 17.9004 1.5622 15.9111 1.1314 13.7453C0.700608 11.5795 0.921705 9.33467 1.76674 7.29457C2.61178 5.25447 4.0428 3.51077 5.87884 2.28396C7.71489 1.05716 9.87349 0.402344 12.0817 0.402344C15.0428 0.402344 17.8826 1.57864 19.9764 3.67244C22.0702 5.76625 23.2465 8.60607 23.2465 11.5672Z" fill="#A77F5B"/>
<!-- <path d="M19.1855 12.5444C19.1855 13.8175 18.808 15.0619 18.1007 16.1205C17.3935 17.179 16.3882 18.004 15.212 18.4912C14.0359 18.9784 12.7417 19.1058 11.4931 18.8574C10.2445 18.6091 9.09755 17.9961 8.19736 17.0959C7.29716 16.1957 6.68412 15.0487 6.43576 13.8001C6.1874 12.5515 6.31485 11.2573 6.80204 10.0812C7.28922 8.90502 8.11424 7.89974 9.17276 7.19246C10.2313 6.48518 11.4757 6.10767 12.7488 6.10767C14.4559 6.10767 16.0931 6.78582 17.3003 7.99295C18.5074 9.20007 19.1855 10.8373 19.1855 12.5444Z" fill="#EF4676"/> -->
<path d="M62.3234 11.5672C62.3234 13.7753 62.9782 15.9339 64.205 17.77C65.4318 19.606 67.1755 21.0371 69.2156 21.8821C71.2557 22.7271 73.5005 22.9482 75.6663 22.5174C77.8321 22.0866 79.8214 21.0233 81.3829 19.4619C82.9443 17.9004 84.0077 15.9111 84.4385 13.7453C84.8692 11.5795 84.6482 9.33467 83.8031 7.29457C82.9581 5.25447 81.5271 3.51077 79.691 2.28396C77.855 1.05716 75.6964 0.402344 73.4882 0.402344C70.5271 0.402344 67.6873 1.57864 65.5934 3.67244C63.4996 5.76625 62.3234 8.60607 62.3234 11.5672Z" fill="#A77F5B"/>
<!-- <path d="M66.3843 12.5444C66.3843 13.8175 66.7618 15.0619 67.4691 16.1205C68.1763 17.179 69.1816 18.004 70.3578 18.4912C71.5339 18.9784 72.8282 19.1058 74.0768 18.8574C75.3254 18.6091 76.4723 17.9961 77.3724 17.0959C78.2726 16.1957 78.8857 15.0487 79.1341 13.8001C79.3824 12.5515 79.2549 11.2573 78.7678 10.0812C78.2806 8.90502 77.4556 7.89974 76.3971 7.19246C75.3385 6.48518 74.0941 6.10767 72.821 6.10767C71.1139 6.10767 69.4767 6.78582 68.2695 7.99295C67.0624 9.20007 66.3843 10.8373 66.3843 12.5444Z" fill="#EF4676"/> -->
<path d="M63.5463 62.0895C63.5463 66.1957 62.3287 70.2097 60.0474 73.6239C57.7661 77.0381 54.5236 79.6992 50.73 81.2706C46.9363 82.8419 42.7619 83.2531 38.7346 82.452C34.7073 81.6509 31.008 79.6736 28.1044 76.77C25.2009 73.8665 23.2236 70.1672 22.4225 66.1399C21.6214 62.1125 22.0326 57.9381 23.6039 54.1445C25.1753 50.3508 27.8364 47.1083 31.2506 44.8271C34.6647 42.5458 38.6787 41.3281 42.785 41.3281C48.2912 41.3281 53.5719 43.5155 57.4655 47.409C61.359 51.3025 63.5463 56.5832 63.5463 62.0895Z" fill="#FCFADB"/>
<path d="M51.6793 44.611C51.62 46.9097 50.6653 49.0943 49.0185 50.6992C47.3718 52.3041 45.1633 53.2022 42.8639 53.2022C40.5644 53.2022 38.3559 52.3041 36.7092 50.6992C35.0624 49.0943 34.1077 46.9097 34.0485 44.611C34.0485 39.7425 37.9983 38.5371 42.8609 38.5371C47.7236 38.5371 51.6793 39.7601 51.6793 44.611Z" fill="#3E2924"/>
<path d="M49.3738 42.4401C49.3738 42.8128 49.2633 43.1771 49.0562 43.4869C48.8492 43.7968 48.5549 44.0383 48.2106 44.1809C47.8663 44.3235 47.4875 44.3608 47.122 44.2881C46.7565 44.2154 46.4207 44.036 46.1572 43.7725C45.8937 43.5089 45.7143 43.1732 45.6415 42.8077C45.5688 42.4422 45.6062 42.0634 45.7488 41.7191C45.8914 41.3748 46.1329 41.0805 46.4427 40.8735C46.7526 40.6664 47.1169 40.5559 47.4896 40.5559C47.9893 40.5559 48.4685 40.7544 48.8219 41.1078C49.1753 41.4612 49.3738 41.9404 49.3738 42.4401Z" fill="white"/>
<path d="M50.3627 67.8768C49.998 67.8768 49.6482 67.7319 49.3903 67.474C49.1324 67.2161 48.9875 66.8664 48.9875 66.5017C48.9875 64.8566 48.334 63.2789 47.1708 62.1157C46.0076 60.9525 44.4299 60.299 42.7849 60.299C41.1398 60.299 39.5621 60.9525 38.3989 62.1157C37.2357 63.2789 36.5822 64.8566 36.5822 66.5017C36.5822 66.8664 36.4373 67.2161 36.1794 67.474C35.9216 67.7319 35.5718 67.8768 35.2071 67.8768C34.8424 67.8768 34.4926 67.7319 34.2347 67.474C33.9768 67.2161 33.832 66.8664 33.832 66.5017C33.8014 65.3063 34.0105 64.1169 34.4468 63.0036C34.8831 61.8903 35.5379 60.8756 36.3726 60.0194C37.2072 59.1631 38.2048 58.4826 39.3066 58.018C40.4084 57.5533 41.592 57.314 42.7878 57.314C43.9835 57.314 45.1672 57.5533 46.269 58.018C47.3708 58.4826 48.3684 59.1631 49.203 60.0194C50.0377 60.8756 50.6925 61.8903 51.1288 63.0036C51.5651 64.1169 51.7742 65.3063 51.7436 66.5017C51.7421 66.8669 51.5959 67.2166 51.3371 67.4744C51.0783 67.7321 50.7279 67.8768 50.3627 67.8768Z" fill="#3E2924"/>
<path d="M59.8188 36.6235C59.8188 39.6663 58.6485 42.1298 57.2383 42.1298C55.8281 42.1298 54.6578 39.6663 54.6578 36.6235C54.6578 33.5807 55.8281 31.1172 57.2383 31.1172C58.6485 31.1172 59.8188 33.5807 59.8188 36.6235Z" fill="#3E2924"/>
<path d="M25.7568 36.6235C25.7568 39.6663 26.9271 42.1298 28.3315 42.1298C29.7359 42.1298 30.9121 39.6663 30.9121 36.6235C30.9121 33.5807 29.7418 31.1172 28.3315 31.1172C26.9213 31.1172 25.7568 33.5807 25.7568 36.6235Z" fill="#3E2924"/>
<path d="M52.0772 32.9839C51.8422 32.9842 51.611 32.9242 51.4058 32.8097C51.2005 32.6952 51.028 32.53 50.9048 32.3298C50.7815 32.1297 50.7116 31.9013 50.7018 31.6665C50.6919 31.4317 50.7424 31.1983 50.8484 30.9885C54.2072 24.3411 60.6732 24.6513 63.6224 25.7221C63.944 25.8639 64.1995 26.1229 64.3367 26.4465C64.474 26.7701 64.4827 27.1338 64.3611 27.4636C64.2395 27.7933 63.9967 28.0643 63.6822 28.2213C63.3677 28.3783 63.0052 28.4095 62.6686 28.3085C62.3994 28.209 56.3781 26.1258 53.3061 32.2056C53.195 32.4377 53.0209 32.6338 52.8035 32.7714C52.5862 32.9091 52.3345 32.9827 52.0772 32.9839Z" fill="#3E2924"/>
<path d="M33.4926 32.9839C33.2378 32.9848 32.9879 32.9147 32.7708 32.7813C32.5537 32.648 32.3781 32.4567 32.2638 32.229C29.1859 26.1434 23.1529 28.2382 22.9013 28.3319C22.5646 28.4329 22.2021 28.4017 21.8876 28.2447C21.5732 28.0877 21.3304 27.8167 21.2088 27.4869C21.0872 27.1572 21.0959 26.7934 21.2331 26.4699C21.3704 26.1463 21.6258 25.8872 21.9475 25.7455C24.8733 24.6512 31.3685 24.3411 34.7215 31.0119C34.8275 31.2216 34.878 31.4551 34.8681 31.6899C34.8582 31.9247 34.7883 32.1531 34.6651 32.3532C34.5418 32.5533 34.3693 32.7185 34.1641 32.833C33.9588 32.9475 33.7276 33.0075 33.4926 33.0073V32.9839Z" fill="#3E2924"/>
<defs>
<linearGradient id="paint0_linear_372_1077" x1="42.7849" y1="3.8548" x2="42.7849" y2="31.4274" gradientUnits="userSpaceOnUse">
<stop stop-color="white"/>
<stop offset="1" stop-color="#A77F5B"/>
</linearGradient>
</defs>
</svg>
